<?xml version="1.0" standalone="no"?>
<!DOCTYPE svg PUBLIC "-//W3C//DTD SVG 20010904//EN"
 "http://www.w3.org/TR/2001/REC-SVG-20010904/DTD/svg10.dtd">
<svg version="1.0" xmlns="http://www.w3.org/2000/svg"
 width="512.000000pt" height="512.000000pt" viewBox="0 0 512.000000 512.000000"
 preserveAspectRatio="xMidYMid meet">
<metadata>
Created by potrace 1.14, written by Peter Selinger 2001-2017
</metadata>
<g transform="translate(0.000000,512.000000) scale(0.100000,-0.100000)"
fill="#000000" stroke="none">
<path d="M2325 5114 c-16 -2 -80 -11 -142 -20 -422 -57 -875 -255 -1228 -534
-103 -81 -314 -292 -395 -395 -227 -286 -405 -649 -490 -997 -55 -223 -65
-319 -65 -608 0 -289 10 -385 65 -608 85 -348 263 -711 490 -997 81 -103 292
-314 395 -395 288 -228 646 -404 997 -490 222 -55 318 -65 608 -65 289 0 385
10 608 65 348 85 711 263 997 490 103 81 314 292 395 395 227 286 405 649 490
997 55 223 65 319 65 608 0 289 -10 385 -65 608 -85 348 -263 711 -490 997
-81 103 -292 314 -395 395 -349 276 -777 464 -1220 536 -95 15 -545 28 -620
18z m450 -1152 c387 -87 608 -293 697 -649 30 -121 33 -442 5 -573 -43 -200
-112 -335 -230 -452 -66 -66 -94 -86 -190 -132 -204 -100 -364 -126 -763 -126
l-264 0 0 -455 0 -455 -205 0 -205 0 0 1375 0 1374 53 16 c119 34 288 67 512
99 17 2 136 3 265 1 192 -2 252 -7 325 -23z"/>
<path d="M2225 3604 c-16 -2 -67 -9 -112 -15 l-83 -11 0 -584 0 -584 304 0
c218 0 339 4 423 15 183 25 199 30 229 81 68 116 105 291 105 499 0 222 -41
344 -148 446 -63 60 -166 110 -273 134 -72 16 -374 29 -445 19z"/>
</g>
</svg>
